# xmcd CD database file
#
# Track frame offsets:
#	150
#	14675
#	26300
#	36425
#	47975
#	62375
#	76475
#	89375
#	102425
#	114275
#	126482
#	140300
#	153800
#	166100
#	180425
#	190850
#	206787
#	221675
#	237462
#	251825
#
# Disc length: 3613 seconds
#
# Revision: 1
# Processed by: cddbd v1.5.1PL2 Copyright (c) Steve Scherf et al.
# Submitted via: CDex 1.51
#
DISCID=150e1b14
DTITLE=J.D. Crowe, Jerry Douglas, Bobby Hicks, Doyle Lawson, Tod Phillips, Tony Rice - The Bluegrass Compact Disc
DYEAR=1986
DGENRE=Bluegrass
TTITLE0=Bkue Ridge Cabin Home
TTITLE1=I Believe In You Darling
TTITLE2=A Hundred Years From Now
TTITLE3=On My Way To the Old Home
TTITLE4=Cora Is Gone
TTITLE5=The Old Home Town
TTITLE6=Take Me In The Lifeboat
TTITLE7=Sitting Alone In The Moonlight
TTITLE8=Head Over Heels
TTITLE9=Ocean of Diamonds
TTITLE10=I'll Never Shed Another Tear
TTITLE11=Unfaithful One
TTITLE12=Is It Too Late Now
TTITLE13=Chalk Up Another One
TTITLE14=One Tear
TTITLE15=Cheyenne
TTITLE16=Devil In Disguise
TTITLE17=Age
TTITLE18=Talk It Over With Him
TTITLE19=Model Church
EXTD=YEAR: 1986
EXTT0=
EXTT1=
EXTT2=
EXTT3=
EXTT4=
EXTT5=
EXTT6=
EXTT7=
EXTT8=
EXTT9=
EXTT10=
EXTT11=
EXTT12=
EXTT13=
EXTT14=
EXTT15=
EXTT16=
EXTT17=
EXTT18=
EXTT19=
PLAYORDER=
